<?xml version="1.0" encoding="utf-8"?>
<!-- Generator: Adobe Illustrator 23.1.0, SVG Export Plug-In . SVG Version: 6.00 Build 0)  -->
<svg version="1.1" id="Capa_1" xmlns="http://www.w3.org/2000/svg" xmlns:xlink="http://www.w3.org/1999/xlink" x="0px" y="0px"
	 viewBox="0 0 500 500" style="enable-background:new 0 0 500 500;" xml:space="preserve">
<style type="text/css">
	.st0{clip-path:url(#SVGID_2_);fill:#D9EDE4;}
	.st1{clip-path:url(#SVGID_2_);fill:#9E9C98;}
	.st2{clip-path:url(#SVGID_2_);fill:#CDCECB;}
	.st3{clip-path:url(#SVGID_2_);fill:#605D5A;}
	.st4{clip-path:url(#SVGID_2_);fill:#0B323C;}
	.st5{clip-path:url(#SVGID_2_);fill:#0B323B;}
	.st6{clip-path:url(#SVGID_2_);fill:#0B313A;}
	.st7{clip-path:url(#SVGID_2_);fill:#A95417;}
	.st8{clip-path:url(#SVGID_2_);fill:#A85517;}
	.st9{clip-path:url(#SVGID_2_);fill:#00090D;}
	.st10{clip-path:url(#SVGID_2_);fill:#000A0C;}
	.st11{clip-path:url(#SVGID_2_);fill:#72AE95;}
	.st12{clip-path:url(#SVGID_2_);fill:#60917A;}
	.st13{clip-path:url(#SVGID_2_);fill:#5A9B7D;}
	.st14{clip-path:url(#SVGID_2_);fill:#62967E;}
	.st15{clip-path:url(#SVGID_2_);fill:#54A880;}
	.st16{clip-path:url(#SVGID_2_);fill:#83C4A7;}
	.st17{clip-path:url(#SVGID_2_);fill:#4FAA7E;}
	.st18{clip-path:url(#SVGID_2_);fill:#66B28F;}
	.st19{clip-path:url(#SVGID_2_);fill:#5C9B7E;}
	.st20{clip-path:url(#SVGID_2_);fill:#387C5B;}
</style>
<g>
	<g>
		<defs>
			<circle id="SVGID_1_" cx="250" cy="250" r="250"/>
		</defs>
		<clipPath id="SVGID_2_">
			<use xlink:href="#SVGID_1_"  style="overflow:visible;"/>
		</clipPath>
		<path class="st0" d="M0.2,479.8c0-159.2,0-318.4,0-477.5C0.1,0.6,0.3,0,2.3,0c165.2,0.1,330.4,0.1,495.6,0c1.8,0,2.1,0.4,2.1,2.1
			c0,165.2,0,330.4,0,495.6c0,2-0.6,2.2-2.3,2.2c-164.7,0-329.4,0-494.1,0c-1.4-2-0.4-4.2-0.8-6.3c-0.2-1-0.1-2.1,0-3.1
			c0.3-1.9,0.1-3.9,0.1-5.8C2.9,482.5,2.5,480.6,0.2,479.8z"/>
		<path class="st1" d="M3.5,490.1c0,3.2,0,6.5,0,9.7c-0.2,0-0.3,0-0.5,0c-0.5-0.5-0.8-1.1-0.7-1.7c0.4-1.9-0.5-2.8-2.2-3.2
			c0-3.4,0-6.8,0-10.3c2.5-1.1,3.1-0.7,3.2,1.8C3.4,487.7,3.1,488.9,3.5,490.1z"/>
		<path class="st2" d="M3.5,490.1c-0.6-0.7-0.5-1.5-0.4-2.3c0.3-2.4-0.5-3.5-3-3.1c0-1.6,0-3.3,0-4.9c3.4,0,3.4,0,3.4,3.5
			C3.6,485.6,3.5,487.9,3.5,490.1z"/>
		<path class="st3" d="M0.2,495c2.6-0.6,3.4,0.5,3,3c-0.1,0.6,0,1.3-0.1,1.9c-2.5,0.5-3.5-0.4-3-2.9C0.3,496.3,0.2,495.6,0.2,495z"
			/>
		<path class="st4" d="M252.9,215.2c0.3,0.9,0.6,0.4,0.9,0c2-2.6,4-5.3,6-7.9c0.6-0.8,0.6-1.7,0.7-2.5c1.1-13.9,8.4-24.3,18.9-32.7
			c10.5-8.4,22.7-12.9,35.8-15.4c1.4-0.3,2.7-0.4,4.1-0.6c2.8-0.3,3.5,0.3,3.4,3.2c-0.8,14.2-5.1,27.2-14.2,38.3
			c-11,13.5-25.4,19.4-42.5,19.1c-1.2,0-2,0.3-2.6,1.2c-3.6,4.7-6.6,9.8-9.6,14.9c-0.6,1-0.3,2.1-0.8,3c-0.6,0.4-0.3,1-0.3,1.6
			c0,30.3,0,60.6,0,90.9c0,0.6-0.1,1.1,0.2,1.7c-0.4,2.7-2.2,4.4-4.6,4.4c-2.3,0-3.8-1.4-4.3-4.1c-0.2-1-0.2-2.1-0.2-3.1
			c0-29.9,0-59.9,0-89.8c0-2-0.4-3.8-1.4-5.6c-2.7-4.6-5.6-9-8.6-13.3c-0.7-1-1.5-1.9-3.1-1.8c-24,0.8-42.2-12.5-51.3-34
			c-3-7.3-4.8-14.8-5.2-22.7c-0.2-3.1,0.6-4.1,3.7-3.8c10.9,1.1,21,4.6,30.5,9.8c9.6,5.3,17.4,12.5,22.9,22c3,5.2,4.8,10.8,5.2,16.8
			c0.1,1,0.3,1.9,0.9,2.7c2,2.5,4,5,6.5,8.1c0-3.5,0-6.4,0-9.3c0-6.1,0-12.2,0-18.3c0-1.2-0.3-2.1-1.2-3
			c-11.7-11.2-17.8-24.8-17.5-41.1c0.3-16.1,6.2-30.3,14.3-43.8c2-3.4,4.2-6.8,6.8-9.8c1.6-2,2.9-2.1,4.4-0.1
			c12.8,17.1,22.2,35.6,21.4,57.7c-0.5,12.7-5.7,23.7-13.9,33.3c-1.6,1.9-3.3,3.6-4.9,5.4c-0.5,0.3-0.4,0.9-0.4,1.3
			c0,8.8,0,17.6,0,26.4C252.7,214.6,252.8,214.9,252.9,215.2z"/>
		<path class="st5" d="M236,298.4c0.1,1.1,0.2,2.6,0.2,4.2c0,2.1-0.9,3.2-3.3,3.1c-6.2-0.4-12.3-1.3-18.3-2.5
			c-17.3-3.5-33.6-9.6-48.8-18.7c-16.8-10-29.7-23.8-39.7-40.4c-7.4-12.3-13-25.4-16.9-39.3c-0.7-2.5-1.2-5.1-1.7-7.6
			c-1-4.5-0.3-5.3,4.3-4.7c10.7,1.2,21.3,3,31.8,5.8c17.3,4.7,33.9,11.2,48.8,21.4c22.1,15.1,36.6,35.4,42,61.8
			C235.3,286.9,235.9,292.5,236,298.4z"/>
		<path class="st6" d="M260.7,298c1.1-24.2,9.1-45.5,25.8-63.2c15-15.9,33.6-26,54.2-32.6c14.4-4.6,29-7.8,44-9.7
			c0.2,0,0.3,0,0.5-0.1c4.4-0.4,5,0.3,4,4.7c-4.6,21.2-13.2,40.6-26.1,58.1c-16.3,22-38.1,35.7-64,43.6c-10.7,3.3-21.6,5.5-32.8,6.8
			c-5.4,0.6-6.1-0.1-5.8-5.5C260.6,299.4,260.7,298.7,260.7,298z"/>
		<path class="st7" d="M146.2,388.1c2.3-1.3,4.7-1.7,7.1-2.5c20.7-7,41.3-14.2,62.1-20.9c17.8-5.8,35.8-11.2,54.1-15
			c18.2-3.8,36.5-5.5,55-4c23.4,1.9,45.1,8.8,65,21.5c1.3,0.8,2.5,1.8,3.7,2.8c1.3,1,0.8,1.8-0.4,2.3c-2.5,1.1-5.1,0.6-7.6-0.2
			c-8.6-2.7-17-6-25.7-8.4c-18.6-5.2-37.5-7-56.7-5.6c-20.7,1.5-40.6,6.5-60.5,12.1c-17.3,4.9-34.3,11.1-51.7,15.5
			c-12.1,3.1-24.4,5.3-37.1,4.3C149.8,389.8,147.9,389.4,146.2,388.1z"/>
		<path class="st7" d="M382.5,387.2c-3.3-0.1-6.4-1.1-9.5-1.7c-21.1-4-42.3-5.4-63.8-2.9c-16.1,1.9-31.6,6.1-47.1,10.8
			c-11.2,3.4-22.4,6.8-34,8.2c-6.2,0.8-12.5,1.1-18.7-0.3c-0.7-0.1-1.4-0.3-1.4-1c0-0.6,0.8-0.7,1.3-0.9c13.4-5.4,26.7-11.1,40.3-16
			c17.3-6.3,34.9-11.4,53.2-13.2c22.5-2.2,44.4,0.8,65.4,9.4c4.4,1.8,8.9,3.6,13,6.1C381.7,386,382.3,386.2,382.5,387.2z"/>
		<path class="st8" d="M242.4,346.9c-7.4,1.9-14.7,3.8-21.9,5.7c-1.5,0.4-3,0.6-4.6,0.5c-8.2-0.3-16.4,0-24.6,0.7
			c-14.2,1.4-28.1,4-41.8,7.7c-11.4,3.1-22.6,7.1-34.2,9.7c-2.8,0.6-5.6,1.2-8.4,1.2c-0.8,0-1.6,0-2.4-0.2c-0.8-0.2-1.7-0.4-1.8-1.4
			c-0.2-1,0.8-1.1,1.4-1.5c8.8-5.9,18.4-10.3,28.3-14c24-9,48.8-13.4,74.4-13.2C217.1,342.3,235.6,344.7,242.4,346.9z"/>
		<path class="st9" d="M252.9,330c-0.5-0.5-0.4-1.2-0.4-1.8c0-31.1,0-62.1,0-93.3c-0.1-0.2,0.4-0.1,0.3,0.1
			c-0.1,0.2,0.1,0.6,0.2,0.9c0,31,0,61.9-0.1,92.9C253,329.2,252.9,329.6,252.9,330z"/>
		<path class="st10" d="M252.9,215.2c-0.5-0.5-0.4-1.2-0.4-1.8c0-8.5,0-17,0-25.5c0-0.4-0.7-1.4,0.6-1.3c0,8.5,0,17,0,25.5
			C253.1,213.1,253,214.2,252.9,215.2z"/>
		<path class="st11" d="M236.3,133.8c1.3-8.2,4.5-15.7,8.2-23c0.6-1.2,1.2-2.3,1.9-3.4c0.5-0.9,0.7-2.4,1.8-2.3c1,0,1.4,1.4,1.9,2.3
			c1.8,3.3,3.6,6.5,5.1,9.9c2.3,5.1,4.2,10.3,5.1,15.9c0.8,5.7-0.6,11.1-2.4,16.4c-1.2,3.5-2.7,7-3.8,10.5c-0.2,0.6-0.3,1.3-1.2,1.3
			c-0.2-7-0.3-14-0.6-20.9c-0.4-7.4-1.3-14.7-4.1-22c-2.1,6.6-3.2,12.9-3.7,19.3c-0.6,7.5-0.5,15.1-0.6,22.6
			c-1.2,0.1-1.4-0.9-1.8-1.6c-1.9-4.7-3.7-9.3-5.2-14.1C236,141.2,235.6,137.5,236.3,133.8z"/>
		<path class="st11" d="M289.5,193.3c4.7-5,10.1-9.4,14.1-15.1c0.4-0.6,1-1,1.1-2.1c-12.3,3.1-22.3,10.1-31.5,18.2
			c2.4-4.9,5.7-9.2,9.7-12.9c7.9-7.1,17.4-11.3,27.4-14.3c1.3-0.4,2.1-0.5,1.7,1.3c-1.4,5.4-3.2,10.7-6.2,15.5
			c-4,3.9-8.8,6.6-13.7,9.1C291.2,193.5,290.4,194.1,289.5,193.3z"/>
		<path class="st11" d="M191.1,183.6c-2.9-4.8-4.4-10-5.9-15.3c-0.4-1.4,0.2-1.5,1.3-1.1c14.1,4.2,26.6,10.8,35.1,23.3
			c0.9,1.3,1.6,2.7,2.4,4.1c-9.3-8.1-19.1-15.3-31.8-18.6c3.6,6.3,8.5,10.7,13.1,15.4c-0.6,1.7-1.8,0.7-2.5,0.4
			C198.4,189.7,194.3,187.3,191.1,183.6z"/>
		<path class="st12" d="M253.1,161.5c1.7-6.2,4.9-12,6-18.4c0.6-3.3,1.4-6.5,1.4-9.8c3.3,13.2,1.3,26.6-7.3,38.2
			C253.1,167.8,253.1,164.7,253.1,161.5z"/>
		<path class="st12" d="M236.3,133.8c-0.3,6.7,2.1,12.7,4.4,18.8c1,2.7,1.8,5.5,3.4,7.9c0,3.4,0,6.9,0,10.6
			C237.1,164,232.4,147.3,236.3,133.8z"/>
		<path class="st13" d="M289.5,193.3c4.9-1.6,9-4.8,13.3-7.6c0.9-0.6,1.7-1.5,2.9-1.7c-2.3,6.1-6.6,10.5-11.6,14.3
			c-3.4,1.3-6.8,2.4-10.3,3.4c-1.3,0.4-2.9,1.4-3.9-0.5C283,198.5,286.3,195.9,289.5,193.3z"/>
		<path class="st12" d="M279.8,201.1c2,0.8,3.7-0.1,5.5-0.7c2.5-0.9,5.3-1.1,7.6-2.7c0.6-0.4,0.7,0.5,1.1,0.6
			c-4.9,4.5-10.6,7.2-17,8.7c-1.4,0.3-2.9,0.9-4.6,0.4C274.6,204.8,277.2,203,279.8,201.1z"/>
		<path class="st12" d="M204.1,199.3c1-0.8,1.9-0.2,2.9,0.1c3.3,1,6.6,2.3,10.2,1.8c2.7,2.1,5.5,4.1,8.2,6.2
			C217.5,206.7,210.3,204.4,204.1,199.3z"/>
		<path class="st11" d="M190.5,240.2c-3.7-3-7.3-6.1-11.5-8.4c3.3,4.1,6.3,8.3,9.3,12.6c3,4.4,5.7,8.9,7.9,13.6
			c-19.2-13.1-35.7-30.4-57.9-39.3c5.5,9.8,14.2,16.2,23.2,23.4c-4.5-0.8-8.3-1.2-12.2-1.6c-3.5-0.4-7-0.4-10.5-0.3
			c-1.5,0.1-2.3-0.4-3.1-1.7c-6.3-10.1-11.2-20.9-14.9-32.2c-0.8-2.5-0.6-2.7,2.2-2.2c12.3,2,24.2,5.1,35.9,9.6
			c12.7,4.9,24.6,11.5,35.1,20.3c1.1,0.9,2,1.9,3,2.9c-0.6,1.7-2.6,0.8-3.7,1.9C192.6,239.3,191.4,239.8,190.5,240.2z"/>
		<path class="st14" d="M200.7,274.4c3.6,2.8,6.8,6,10.2,9.5c-2.5,0.6-4.8,0.5-6.9,0.2c-7.8-1.2-15.7-2.3-23.2-5
			c-7.3-2.6-14-6.4-19.8-11.6c-1.7-1.5-4.1-2.1-5.1-4.4c0.8-1.2,1.9-0.6,2.9-0.3c4.4,1.4,9,1,13.5,1.6c0.8,0.1,1.6-0.5,2.4-0.4
			c0.4,0,0.8,0.1,1.1,0.2C183.7,268.6,191.9,272.3,200.7,274.4z"/>
		<path class="st15" d="M190.5,240.2c-0.1-1.4,0-2.5,1.9-1.8c0.1,0.1,0.4,0.1,0.4,0.1c1-1.3,2.3-2,4-1.6c8.7,7.2,15.3,16,20.5,26
			c3.2,6.2,5.5,12.8,6.5,19.9c-4.5-5.2-10.6-8.9-13.8-15.3C204.9,257.4,198.3,248.4,190.5,240.2z"/>
		<path class="st16" d="M175.8,264.7c-0.3,0-0.6,0-1-0.1c-4.6-0.6-8.4-3.2-12.4-5.2c-6.8-3.4-13.3-7.2-19.2-12
			c-0.6-0.5-1.5-0.7-1.5-1.7c16.5,0.6,31.9,3.9,43.9,16.5c0.4,0.8,0,1.3-0.6,1.5C182,264.5,179.1,266,175.8,264.7z"/>
		<path class="st11" d="M141.7,245.7c2.7,1.9,5.4,3.9,8.1,5.7c7.9,5.2,16.4,9.4,25,13.3c-5.6,0.7-11.1,0.3-16.6-1.2
			c-0.8-0.2-1.5-0.7-2.3-0.3c-5.8-4.3-10.1-9.9-14.6-15.4C140.2,246.3,140.4,245.9,141.7,245.7z"/>
		<path class="st11" d="M175.8,264.7c2.9,0.2,5.7-1,8.5-1.3c0.7-0.1,1.2-0.4,1.3-1.2c5.3,3.7,10,8.2,15.1,12.2
			c-2.8,0.5-5.3-0.7-7.9-1.5C186.9,270.9,181.2,268.1,175.8,264.7z"/>
		<path class="st11" d="M297.9,238.3c5.7-5.5,12-10.1,18.8-14.2c15.5-9.4,32.6-14.7,50.2-18.5c2.6-0.6,5.3-1,7.9-1.5
			c1.5-0.3,2,0.1,1.5,1.8c-1.4,4.8-3.4,9.5-5.3,14.1c-2.5,6-5.4,11.8-8.8,17.4c-1.2,1.9-2.5,3-5,2.9c-7.1-0.3-14.2,0.8-22,2
			c9.1-7.2,17.7-13.9,24.1-23.6c-5.9,1.4-10.7,4.1-15.3,7.1c-11.9,7.6-22.6,16.7-33.8,25.2c-3,2.3-6,4.7-9,7.1
			c0.4-3.4,9.3-17.5,16.3-26c-6.1,3.3-11,8-15.8,12.9c-0.6-1.1-0.7-1.1,0-2c0.9-1.1,2.1-2,2.9-3.3c-0.4-0.4-1.1-0.4-1.4-0.9
			c-1.1-1.5-2.2-1.5-3.6-0.1C298.4,239.9,298.2,239.7,297.9,238.3z"/>
		<path class="st12" d="M342.8,261.7c-4.2,4.1-8.8,7.7-13.7,11c-4.7,3.2-10,5.2-15.2,7.5c-6,2.4-12.3,3.3-18.6,4.3
			c-2.4,0.4-4.8,0.7-7.2,0.5c-1-0.1-2.2,0.2-2.5-1.3c2.8-2.5,5.6-5.1,8.4-7.6c0.7-0.6,1.3-1.5,2.3-1.7c5.2-1.8,10.6-3,15.6-5.4
			c2.6-1.3,5.2-2.6,7.9-3.7c1.1-0.5,2.3-0.8,3.5-0.8c6-0.1,12-0.5,17.6-2.8C341.5,261.3,342.2,261.2,342.8,261.7z"/>
		<path class="st17" d="M297.9,238.3c0.3,1.2,0.7,0.7,1.2,0.1c2.1-2.1,2.6-2.1,4.5,0.1c0.1,0.2,0.3,0.4,0.5,0.4
			c1.7,0.6,1.8,0.6,0.6,1.9c-0.9,1-1.8,1.9-2.7,2.8c-0.4,0.4-1,0.8-0.3,1.4c-3.2,4.3-6.5,8.5-9.3,13.1c-1.5,2.5-3.3,4.9-4.4,7.6
			c-1.5,3.6-3.5,6.8-6.6,9.4c-2.8,2.4-5.1,5.4-8,7.8C276.2,264.9,285,250.5,297.9,238.3z"/>
		<path class="st18" d="M311,262.9c4-2.8,8.3-5.3,12.7-7.7c4.1-2.3,9.1-2.9,13.9-3.7c4.3-0.7,8.6-1.2,13-1.3
			c1.1-0.3,2.2-0.1,3.5-0.1c-0.4,1.5-1.7,2.1-2.9,2.8c-8,4.6-16.9,8.1-25.9,11.4c-4.2,1.5-8.7,1.4-13-0.2
			C311.8,263.8,311,263.6,311,262.9z"/>
		<path class="st19" d="M309.4,265.5c0.4-0.3,0.9-0.4,1.4-0.2c4.6,2.1,9.1,2.9,14.2,0.3c7-3.6,14.2-7,20.8-11.3c1.6-1,3.2-2,4.7-3.2
			c0.9-0.8-2.1,3.9-3.3,3.9l2.4-6.3c1.2-0.4,2.4-0.4,3.8-0.4c1.1,0,1.7,1.2,1.1,2.1c-3.7,5.3-7.9,9.8-12.6,13.9
			c-0.1,0.1-0.2,0.2-0.4,0.2c-6.4,2.7-13,3.4-19.9,3.3c-2.6,0-4.6,1.8-6.8,2.8c-5.7,2.6-11.4,5.3-17.7,6.4c-0.6,0.1-1.2,0.5-1.9,0
			C299.8,273,304.6,269.3,309.4,265.5z"/>
		<path class="st20" d="M285.7,283.6c2.2,1,4.5,0.6,6.6,0.4c6.4-0.7,12.7-2,19-3.6c0.8-0.2,1.8-0.2,2.6-0.2c-1.6,2.4-4.5,3-6.8,4.3
			c-5.7,3.2-12,5-18.1,7.3c-3.9,1.5-8.1,2-12.2,3.1c-0.4,0.1-1,0.3-1.2-0.4c-0.1-0.5,0.4-0.8,0.7-1.2
			C279.5,290,282.6,286.8,285.7,283.6z"/>
		<path class="st5" d="M262.4,282.5c5.4-26.4,19.9-46.7,42-61.8c14.9-10.2,31.4-16.7,48.8-21.4c10.4-2.8,21.1-4.6,31.8-5.8
			c4.6-0.5,5.3,0.3,4.3,4.7c-0.6,2.5-1,5.1-1.7,7.6c-3.9,13.8-9.5,26.9-16.9,39.3c-10,16.7-22.9,30.4-39.7,40.4
			c-15.2,9.1-31.5,15.2-48.8,18.7c-6,1.2-12.1,2.2-18.3,2.5c-2.4,0.1-3.3-1-3.3-3.1c0-1.5,0.1-3.1,0.2-4.2
			C260.7,293.4,261.3,287.9,262.4,282.5z"/>
		<path class="st11" d="M303.5,239.8c-1.1-1.2-3.1-0.2-3.7-1.9c1-1,2-2,3-2.9c10.5-8.8,22.3-15.3,35.1-20.3
			c11.6-4.5,23.6-7.7,35.9-9.6c2.8-0.4,3-0.3,2.2,2.2c-3.8,11.3-8.7,22-14.9,32.2c-0.8,1.3-1.6,1.7-3.1,1.7c-3.5-0.1-7,0-10.5,0.3
			c-3.9,0.4-7.7,0.8-12.2,1.6c9-7.2,17.7-13.6,23.2-23.4c-22.2,8.9-38.7,26.2-57.9,39.3c2.2-4.7,4.9-9.3,7.9-13.6
			c2.9-4.3,6-8.6,9.3-12.6c-4.2,2.3-7.8,5.5-11.5,8.4C305.2,240.8,304,240.3,303.5,239.8z"/>
		<path class="st14" d="M320.8,265.1c0.4-0.1,0.8-0.2,1.1-0.2c0.8-0.1,1.6,0.4,2.4,0.4c4.5-0.5,9.1-0.1,13.5-1.6
			c0.9-0.3,2-0.9,2.9,0.3c-1,2.2-3.4,2.9-5.1,4.4c-5.8,5.2-12.5,9-19.8,11.6c-7.5,2.7-15.4,3.8-23.2,5c-2.1,0.3-4.4,0.4-6.9-0.2
			c3.4-3.5,6.6-6.7,10.2-9.5C304.7,273.3,312.9,269.5,320.8,265.1z"/>
		<path class="st15" d="M286.6,268.4c-3.3,6.5-9.3,10.1-13.8,15.3c1-7.1,3.3-13.6,6.5-19.9c5.2-10,11.8-18.8,20.5-26
			c1.7-0.4,2.9,0.3,4,1.6c0.1,0.1,0.3,0,0.5-0.1c1.9-0.7,2,0.5,1.9,1.8C298.3,249.4,291.7,258.4,286.6,268.4z"/>
		<path class="st16" d="M311.6,264.7c-0.6-0.2-1.1-0.7-0.6-1.5c12-12.6,27.4-15.9,43.9-16.5c0,1-0.9,1.3-1.5,1.7
			c-5.9,4.8-12.4,8.6-19.2,12c-4,2-7.8,4.7-12.4,5.2c-0.3,0-0.6,0.1-1,0.1C317.5,267,314.6,265.5,311.6,264.7z"/>
		<path class="st11" d="M355.3,248.6c-4.5,5.5-8.8,11.1-14.6,15.4c-0.8-0.4-1.6,0.1-2.3,0.3c-5.5,1.5-11,1.9-16.6,1.2
			c8.6-3.9,17.1-8,25-13.3c2.8-1.8,5.4-3.8,8.1-5.7C356.2,246.9,356.4,247.2,355.3,248.6z"/>
		<path class="st11" d="M303.7,273.8c-2.5,0.8-5.1,2-7.9,1.5c5.1-4,9.8-8.5,15.1-12.2c0.1,0.8,0.6,1.1,1.3,1.2
			c2.8,0.3,5.6,1.5,8.5,1.3C315.4,269.1,309.7,271.8,303.7,273.8z"/>
	</g>
</g>
</svg>
